<svg xmlns="http://www.w3.org/2000/svg" width="40" height="40" viewBox="0 0 40 40">
  <g id="ic-chemical" transform="translate(-674 233)">
    <g id="フラスコのフリーアイコン4" transform="translate(680 -234)">
      <path id="Path_122" data-name="Path 122" d="M233.932,2.881a1.441,1.441,0,1,0-1.439-1.442A1.441,1.441,0,0,0,233.932,2.881Z" transform="translate(-219.836 1)" fill="#c1bfbf"/>
      <path id="Path_123" data-name="Path 123" d="M240.379,89.268a.847.847,0,1,0-.847.847A.846.846,0,0,0,240.379,89.268Z" transform="translate(-225.544 -80.502)" fill="#c1bfbf"/>
      <path id="Path_124" data-name="Path 124" d="M262.4,48.535a1.013,1.013,0,1,0,1.015-1.011A1.014,1.014,0,0,0,262.4,48.535Z" transform="translate(-247.406 -42.806)" fill="#c1bfbf"/>
      <path id="Path_125" data-name="Path 125" d="M99.132,140.16l-8.111-12.954a7.415,7.415,0,0,1-1.129-3.934l.01-8.417H88.467l-.01,8.392v.025a8.852,8.852,0,0,0,1.348,4.695l8.111,12.955a2.332,2.332,0,0,1-1.976,3.569h-.013l-21.45-.023a2.332,2.332,0,0,1-1.972-3.573l8.138-12.939a8.842,8.842,0,0,0,1.359-4.7l.009-8.4H80.58l-.01,8.4a7.421,7.421,0,0,1-1.138,3.94l-8.138,12.938a3.766,3.766,0,0,0,3.184,5.77l21.459.023v0c.033,0,.05,0,.052,0v0a3.764,3.764,0,0,0,3.144-5.761Z" transform="translate(-70.715 -105.868)" fill="#c1bfbf" stroke="#c1bfbf" stroke-width="1"/>
      <path id="Path_126" data-name="Path 126" d="M124.842,326.008l-5.6,8.9a1.228,1.228,0,0,0-.035,1.243,1.247,1.247,0,0,0,1.072.655h18.98a1.226,1.226,0,0,0,1.038-1.875l-5.577-8.91a1.222,1.222,0,0,0-1.038-.575l-7.805-.008A1.216,1.216,0,0,0,124.842,326.008Zm7.4,6.184a.9.9,0,1,1-.9.9A.9.9,0,0,1,132.24,332.191Zm-4.3-3.855a1.344,1.344,0,1,1-1.345,1.345A1.345,1.345,0,0,1,127.938,328.337Z" transform="translate(-115.275 -299.975)" fill="#c1bfbf"/>
    </g>
    <rect id="Rectangle_261" data-name="Rectangle 261" width="40" height="40" transform="translate(674 -233)" fill="none"/>
  </g>
</svg>
