<svg id="ic-device-sign1" xmlns="http://www.w3.org/2000/svg" width="24" height="24" viewBox="0 0 24 24">
  <path id="Path_401" data-name="Path 401" d="M0,0H24V24H0Z" fill="none"/>
  <path id="Path_402" data-name="Path 402" d="M9.6,9v5.5h1.5V19l3.5-6h-2l1.5-4Z" fill="#ff9100"/>
  <path id="Path_403" data-name="Path 403" d="M21.007,16.848l-8.4-14.454a1.979,1.979,0,0,0-3.433,0L.771,16.848A1.962,1.962,0,0,0,1.042,19.2a2.132,2.132,0,0,0,1.445.632H19.2a2.132,2.132,0,0,0,1.445-.632,1.992,1.992,0,0,0,.542-1.355A1.391,1.391,0,0,0,21.007,16.848Zm-1.536,1.265c-.09.09-.09.09-.181.09H2.487c-.09,0-.181,0-.181-.09l-.09-.181v-.181L10.618,3.3c.09-.09.181-.181.271-.181s.181,0,.271.181l8.4,14.454v.181Z" transform="translate(1.108 0.986)" fill="#ff9100"/>
</svg>
