<svg xmlns="http://www.w3.org/2000/svg" width="24" height="24" viewBox="0 0 24 24">
  <g id="ic-device-sign4" transform="translate(-6456 -3149)">
    <g id="Group_352" data-name="Group 352" transform="translate(5945 2618)">
      <g id="Path_410" data-name="Path 410" transform="translate(513 533.886)" fill="#ffe3db">
        <path d="M 19 17 L 1 17 L 1 1 L 19 1 L 19 17 Z" stroke="none"/>
        <path d="M 2 2 L 2 16 L 18 16 L 18 2 L 2 2 M 0 0 L 20 0 L 20 18 L 0 18 L 0 0 Z" stroke="none" fill="#ff7f57"/>
      </g>
      <path id="Path_411" data-name="Path 411" d="M7258,3216.5l20.157-18.315" transform="translate(-6745 -2664)" fill="none" stroke="#ff7f57" stroke-width="1"/>
      <g id="Ellipse_2" data-name="Ellipse 2" transform="translate(530 533)" fill="#fff" stroke="#ff7f57" stroke-width="1">
        <circle cx="2" cy="2" r="2" stroke="none"/>
        <circle cx="2" cy="2" r="1.5" fill="none"/>
      </g>
      <g id="Ellipse_3" data-name="Ellipse 3" transform="translate(512 549)" fill="#fff" stroke="#ff7f57" stroke-width="1">
        <circle cx="2" cy="2" r="2" stroke="none"/>
        <circle cx="2" cy="2" r="1.5" fill="none"/>
      </g>
    </g>
    <rect id="Rectangle_261" data-name="Rectangle 261" width="24" height="24" transform="translate(6456 3149)" fill="none"/>
  </g>
</svg>
