<svg xmlns="http://www.w3.org/2000/svg" width="25.107" height="24" viewBox="0 0 25.107 24">
  <g id="ic-device-sign5" transform="translate(-6499.293 -3149)">
    <g id="Group_351" data-name="Group 351" transform="translate(5879.819 2617.166)">
      <g id="Subtraction_1" data-name="Subtraction 1" transform="translate(7366 3203)" fill="#fff">
        <path d="M -6726.865234375 -2651.999267578125 L -6740.13525390625 -2651.999267578125 C -6740.70263671875 -2653.073486328125 -6741.00048828125 -2654.273193359375 -6741.00048828125 -2655.500244140625 C -6741.00048828125 -2659.635498046875 -6737.6357421875 -2662.999755859375 -6733.49951171875 -2662.999755859375 C -6729.3642578125 -2662.999755859375 -6726 -2659.635498046875 -6726 -2655.500244140625 C -6726 -2654.273193359375 -6726.2978515625 -2653.073486328125 -6726.865234375 -2651.999267578125 Z" stroke="none"/>
        <path d="M -6727.49853515625 -2652.999267578125 C -6727.17041015625 -2653.78662109375 -6727 -2654.635498046875 -6727 -2655.500244140625 C -6727 -2659.083984375 -6729.91552734375 -2661.999755859375 -6733.49951171875 -2661.999755859375 C -6737.083984375 -2661.999755859375 -6740.00048828125 -2659.083984375 -6740.00048828125 -2655.500244140625 C -6740.00048828125 -2654.635498046875 -6739.830078125 -2653.78662109375 -6739.501953125 -2652.999267578125 L -6727.49853515625 -2652.999267578125 M -6726.2880859375 -2650.999267578125 L -6740.71240234375 -2650.999267578125 C -6741.55517578125 -2652.34716796875 -6742.00048828125 -2653.9033203125 -6742.00048828125 -2655.500244140625 C -6742.00048828125 -2660.18701171875 -6738.18701171875 -2663.999755859375 -6733.49951171875 -2663.999755859375 C -6728.81298828125 -2663.999755859375 -6725 -2660.18701171875 -6725 -2655.500244140625 C -6725 -2653.9033203125 -6725.4453125 -2652.34716796875 -6726.28759765625 -2650.999755859375 L -6726.2880859375 -2650.999267578125 Z" stroke="none" fill="#ff7f57"/>
      </g>
      <g id="Group_329" data-name="Group 329" transform="translate(-185.829 591.571) rotate(-45)">
        <path id="Path_416" data-name="Path 416" d="M7349.215,3197.886h8.141" transform="translate(-6743.231 -2664)" fill="none" stroke="#ff7f57" stroke-width="2"/>
        <path id="Path_417" data-name="Path 417" d="M7355.054,3197.886v5.643" transform="translate(-6745 -2664)" fill="none" stroke="#ff7f57" stroke-width="2"/>
      </g>
      <g id="Group_330" data-name="Group 330" transform="translate(639.883 544.581) rotate(-135)">
        <path id="Path_416-2" data-name="Path 416" d="M0,0H8.141" transform="translate(0 5.643)" fill="none" stroke="#ff7f57" stroke-width="2"/>
        <path id="Path_417-2" data-name="Path 417" d="M0,5.643V0" transform="translate(4.07 0)" fill="none" stroke="#ff7f57" stroke-width="2"/>
      </g>
    </g>
    <rect id="Rectangle_262" data-name="Rectangle 262" width="24" height="24" transform="translate(6500 3149)" fill="none"/>
  </g>
</svg>
