<svg xmlns="http://www.w3.org/2000/svg" width="40" height="40" viewBox="0 0 40 40">
  <g id="ic-floor" transform="translate(-1077 233)">
    <g id="layers" transform="translate(1081.004 -228.725)">
      <path id="Path_127" data-name="Path 127" d="M16.442.875a.9.9,0,0,0-1,0L.605,7.891c-.6.2-.8.8-.4,1.2,0,.2.2.2.4.4L6.419,12.3.605,15.108c-.6.2-.8.8-.4,1.2,0,.2.2.2.4.4L15.64,23.728a.9.9,0,0,0,1,0l15.034-7.016a.964.964,0,0,0,.4-1.2c0-.2-.2-.2-.4-.4L25.863,12.3,31.676,9.5a.755.755,0,0,0,.2-1.2c0-.2-.2-.2-.4-.4ZM23.658,13.3,29.07,15.91,16.241,21.923,3.412,15.91,8.423,13.3l7.016,3.408a.9.9,0,0,0,1,0Z" transform="translate(0)" fill="#c1bfbf"/>
      <path id="Path_128" data-name="Path 128" d="M31.468,12.206,26.657,9.8c-.2,0-.2,0-.4.2l.4-.2h0l-1.8.6a.736.736,0,0,0-.6.2l4.811,2.205L16.234,18.821,3.4,12.807,8.616,10.4h-.2a3.648,3.648,0,0,1-2.205-.8L1,12.206c-1,.2-1.2.8-.8,1.2,0,.2.2.2.4.4l15.034,7.016a.9.9,0,0,0,1,0L31.669,13.81a.964.964,0,0,0,.4-1.2C31.869,12.406,31.669,12.206,31.468,12.206Z" transform="translate(0.008 8.916)" fill="#c1bfbf"/>
    </g>
    <rect id="Rectangle_263" data-name="Rectangle 263" width="40" height="40" transform="translate(1077 -233)" fill="none"/>
  </g>
</svg>
