<svg xmlns="http://www.w3.org/2000/svg" xmlns:xlink="http://www.w3.org/1999/xlink" width="24" height="24" viewBox="0 0 24 24">
  <defs>
    <clipPath id="clip-path">
      <rect id="Rectangle_227" data-name="Rectangle 227" width="24" height="24" fill="#9088db" stroke="#9088db" stroke-width="0.5"/>
    </clipPath>
  </defs>
  <g id="ic-map" clip-path="url(#clip-path)">
    <path id="Path_390" data-name="Path 390" d="M0,20.906V3.094a.51.51,0,0,0,.042-.1A3.594,3.594,0,0,1,2.647.116c.147-.047.3-.078.446-.116h.563A.67.67,0,0,1,4,.679C3.986,1.365,4,2.053,4,2.74V3h.27q9.5,0,19-.006A.75.75,0,0,1,24,3.328V24H3.094a.617.617,0,0,0-.1-.043,3.591,3.591,0,0,1-2.874-2.6c-.047-.147-.078-.3-.117-.446M4,4v.316q0,6.55,0,13.1A.51.51,0,0,1,3.432,18a2.433,2.433,0,0,0-2.37,3.054A2.373,2.373,0,0,0,3.593,23q9.561,0,19.123.006c.219,0,.293-.05.293-.282Q23,13.515,23,4.306C23,4,23,4,22.681,4H4" transform="translate(0 0)" fill="#9088db" stroke="#9088db" stroke-width="0.5"/>
    <path id="Path_391" data-name="Path 391" d="M15.274,19.216c0-.182-.006-.338,0-.492a.491.491,0,0,1,.506-.5.481.481,0,0,1,.489.491c.008.156,0,.31,0,.484h2.97v-4.97c-.071,0-.14-.011-.208-.011-.836,0-1.671.006-2.508-.007-.212,0-.266.064-.258.267.015.4.008.8,0,1.195a.49.49,0,0,1-.485.544.5.5,0,0,1-.51-.547c0-.625,0-1.25,0-1.875a.512.512,0,0,1,.577-.577q1.571,0,3.141,0h.248V6.241H16.272v.253q0,2.074,0,4.148c0,.346-.169.551-.458.57a.5.5,0,0,1-.539-.561c0-1.062,0-2.124,0-3.188V6.237H11.267V9.223h.91c.2,0,.406-.007.609,0a.494.494,0,0,1,.019.988q-1.042.015-2.085,0a.484.484,0,0,1-.462-.541q0-1.581,0-3.164V6.238H6.275v5.97c.066,0,.134.014.2.014q2.11,0,4.219-.007a.51.51,0,0,1,.568.537q-.005.937-.011,1.874c0,.362-.19.589-.486.6s-.507-.228-.508-.6c0-.459,0-.919,0-1.392H6.274V19.2h3.982v-.686c0-.25,0-.5,0-.75a.5.5,0,1,1,.993,0c0,.39,0,.782,0,1.172v.277c.165,0,.3,0,.442,0a.512.512,0,0,1,.563.5.505.505,0,0,1-.559.5q-2.249,0-4.5,0c-.438,0-.876,0-1.313,0-.467,0-.636-.169-.636-.636q0-4.313,0-8.625V5.893c0-.51.164-.676.671-.676H19.537c.575,0,.716.156.716.719,0,2.586.008,5.171.008,7.758q0,3-.013,6c0,.35-.195.524-.573.525-1.117,0-2.234,0-3.351,0-.492,0-.983,0-1.475,0-.363,0-.576-.195-.57-.506a.505.505,0,0,1,.563-.494c.132,0,.264,0,.431,0" transform="translate(0.759 0.754)" fill="#9088db" stroke="#9088db" stroke-width="0.5"/>
  </g>
</svg>
