<svg xmlns="http://www.w3.org/2000/svg" xmlns:xlink="http://www.w3.org/1999/xlink" width="23.046" height="23.046" viewBox="0 0 23.046 23.046">
  <defs>
    <clipPath id="clip-path">
      <rect id="Rectangle_227" data-name="Rectangle 227" width="23.046" height="23.046" fill="#8e8e8e" stroke="#8e8e8e" stroke-width="0.5"/>
    </clipPath>
  </defs>
  <g id="ic-map-gray" clip-path="url(#clip-path)">
    <path id="Path_390" data-name="Path 390" d="M0,20.075V2.971a.49.49,0,0,0,.041-.1,3.451,3.451,0,0,1,2.5-2.76C2.683.066,2.828.036,2.971,0h.541a.643.643,0,0,1,.332.652c-.015.659-.005,1.32-.007,1.979v.249H4.1q9.123,0,18.245-.005a.72.72,0,0,1,.7.321v19.85H2.971a.592.592,0,0,0-.1-.042,3.448,3.448,0,0,1-2.76-2.5c-.045-.141-.075-.286-.112-.429M3.838,3.838v.3q0,6.289,0,12.58a.49.49,0,0,1-.541.565A2.337,2.337,0,0,0,1.02,20.218a2.278,2.278,0,0,0,2.43,1.869q9.181,0,18.363.005c.21,0,.281-.048.281-.27q-.01-8.845-.007-17.688c0-.3,0-.3-.308-.3H3.838" transform="translate(0 0)" fill="#8e8e8e" stroke="#8e8e8e" stroke-width="0.5"/>
    <path id="Path_391" data-name="Path 391" d="M14.875,18.66c0-.175-.005-.324,0-.473a.471.471,0,0,1,.486-.48.462.462,0,0,1,.469.471c.008.149,0,.3,0,.465h2.852V13.871c-.068,0-.134-.011-.2-.011-.8,0-1.6.005-2.408-.007-.2,0-.255.062-.247.256.014.382.008.765,0,1.147a.471.471,0,0,1-.466.522.481.481,0,0,1-.49-.525c0-.6,0-1.2,0-1.8a.491.491,0,0,1,.554-.554q1.508,0,3.016,0h.238V6.2h-2.85v.243q0,1.991,0,3.983c0,.332-.163.529-.44.547a.479.479,0,0,1-.518-.539c0-1.02,0-2.04,0-3.061V6.2H11.028V9.064H11.9c.195,0,.39-.007.585,0a.475.475,0,0,1,.019.948q-1,.015-2,0a.465.465,0,0,1-.444-.52q0-1.518,0-3.038V6.2H6.235V11.93c.064,0,.129.013.192.013q2.026,0,4.051-.007a.49.49,0,0,1,.545.515q0,.9-.011,1.8c0,.347-.182.566-.467.572s-.487-.219-.488-.575c0-.441,0-.883,0-1.336H6.234v5.732h3.824v-.658c0-.24,0-.479,0-.72a.479.479,0,1,1,.954,0c0,.375,0,.751,0,1.125v.266c.158,0,.291,0,.424,0a.492.492,0,0,1,.541.478.485.485,0,0,1-.536.48q-2.16,0-4.319,0c-.421,0-.841,0-1.261,0-.448,0-.611-.163-.611-.611q0-4.141,0-8.282V5.866c0-.49.157-.65.644-.65H18.969c.552,0,.688.149.688.69,0,2.483.008,4.965.008,7.449q0,2.88-.012,5.76c0,.336-.187.5-.551.5-1.073,0-2.145,0-3.218,0-.473,0-.944,0-1.417,0-.348,0-.553-.187-.547-.486a.485.485,0,0,1,.541-.475c.126,0,.254,0,.414,0" transform="translate(0.52 0.517)" fill="#8e8e8e" stroke="#8e8e8e" stroke-width="0.5"/>
  </g>
</svg>
