<svg xmlns="http://www.w3.org/2000/svg" width="24" height="24" viewBox="0 0 24 24">
  <g id="ic-ok" transform="translate(-980 454)">
    <path id="check-circle-fill" d="M20,10A10,10,0,1,1,10,0,10,10,0,0,1,20,10ZM15.038,6.213a.937.937,0,0,0-1.35.027L9.346,11.771,6.73,9.154a.937.937,0,0,0-1.325,1.325l3.307,3.309a.938.938,0,0,0,1.349-.025l4.99-6.237a.937.937,0,0,0-.013-1.312Z" transform="translate(982 -452)" fill="#94db56"/>
    <rect id="Rectangle_265" data-name="Rectangle 265" width="24" height="24" transform="translate(980 -454)" fill="none"/>
  </g>
</svg>
