<svg id="ic-replace" xmlns="http://www.w3.org/2000/svg" width="20" height="20" viewBox="0 0 20 20">
  <path id="Path_392" data-name="Path 392" d="M0,0H20V20H0Z" fill="none"/>
  <path id="Path_393" data-name="Path 393" d="M10.667,5.167v2.5L14,4.333,10.667,1V3.5A6.655,6.655,0,0,0,5.033,13.717L6.25,12.5a4.892,4.892,0,0,1-.583-2.333A5,5,0,0,1,10.667,5.167ZM16.3,6.617,15.083,7.833a4.992,4.992,0,0,1-4.417,7.333v-2.5L7.333,16l3.333,3.333v-2.5A6.655,6.655,0,0,0,16.3,6.617Z" transform="translate(-0.667 -0.167)" fill="#3acb90"/>
</svg>
