<svg xmlns="http://www.w3.org/2000/svg" width="270.512" height="28.44" viewBox="0 0 270.512 28.44">
  <g id="logo-title" transform="translate(-450.72 -17.23)">
    <path id="Path_419" data-name="Path 419" d="M16.41-20.61a22.591,22.591,0,0,1-1.23,2.19H8.73a26.583,26.583,0,0,0,1.56-2.19Zm11.94,5.43v-3.24H19.32c.81-1.26,1.59-2.58,2.19-3.69L18.9-23.76l-.6.15H12.06l.63-1.26-3.93-.66A22.732,22.732,0,0,1,.72-15.84a12.257,12.257,0,0,1,2.61,2.67c.51-.36.99-.75,1.44-1.14v1.53C4.77-8.88,4.44-3.48.78.3A12.976,12.976,0,0,1,3.54,2.67C7.59-1.5,8.31-8.19,8.31-12.75v-2.43ZM16.56-.81c-2.19,0-2.58-.21-2.58-1.56v-7.71h7.17c-.15,1.98-.33,2.91-.63,3.21a1.23,1.23,0,0,1-.96.27,21.052,21.052,0,0,1-2.79-.12,7.116,7.116,0,0,1,.93,3.09,32.79,32.79,0,0,0,3.63-.06,3.193,3.193,0,0,0,2.13-1.02c.72-.81,1.02-2.82,1.26-7.17.03-.39.06-1.23.06-1.23H10.53V-2.34c0,3.75,1.35,4.77,5.82,4.77h7.14c3.99,0,5.04-1.32,5.55-6.21A11.878,11.878,0,0,1,25.77-5.1c-.24,3.66-.54,4.29-2.52,4.29ZM50.97-3.33v2.31H39.27V-3.33ZM35.85,2.64h3.42V1.77h11.7v.81h3.6v-8.7H35.85Zm.03-22.41H54.06v1.35l-.15-.15a62.758,62.758,0,0,1-7.23.81v-1.62H43.35v1.83c-2.46.12-5.04.18-7.47.21Zm10.8,9.63v-1.29h9.09v-2.61H46.68v-1.2a79.5,79.5,0,0,0,9.27-1.11l-.36-.39h2.13v-6.15H47.67c-.45-.93-1.08-2.01-1.62-2.88l-3.42.99c.33.54.66,1.23.99,1.89H32.4v6.15h1.83a6.948,6.948,0,0,1,.39,1.8c2.76.03,5.76,0,8.73-.12v1.02H34.56v2.61h8.79v1.29H31.71v2.88H58.44v-2.88ZM71.01-21.69H68.04c-.42-1.08-1.02-2.34-1.56-3.39l-3,.9c.36.75.75,1.62,1.08,2.49H61.47v2.91h9.54ZM70.98-5.07V-8.01H67.77v-2.55h3.42v-2.91H69.21c.39-1.35.84-3.03,1.29-4.65l-2.79-.6c-.21,1.56-.69,3.72-1.05,5.25H63.69l1.95-.45a16.128,16.128,0,0,0-.93-4.77l-2.46.51a18.17,18.17,0,0,1,.78,4.71H61.2v2.91h3.3v2.55H61.53v2.94h2.88A7.1,7.1,0,0,1,61.23.3a13.355,13.355,0,0,1,2.19,2.34,10.525,10.525,0,0,0,4.26-7.71Zm3.81-8.25c0,.54,0,1.08-.03,1.59a26.58,26.58,0,0,0-1.14-5.31l-2.37.51a26.182,26.182,0,0,1,1.11,7.44l2.31-.45c-.3,3.69-1.29,7.17-4.14,9.87a10.7,10.7,0,0,1,2.19,2.31c4.47-4.2,5.01-9.93,5.01-15.96V-25.23H74.79Zm14.16,2.79v-2.94H86.94c.39-1.44.84-3.21,1.29-4.83l-2.55-.54H88.5v-2.94H85.41a31.531,31.531,0,0,0-1.32-3.54l-2.94.66a18.1,18.1,0,0,1,.99,2.88H78.72v2.94h6.66a48.462,48.462,0,0,1-1.05,5.37H81.06l1.95-.45a17.484,17.484,0,0,0-1.02-4.77l-2.46.51a20.43,20.43,0,0,1,.87,4.71H78.45v2.94h3.78v3.18H78.81v2.94h3.42V2.64h3.33V-4.41h3.06V-7.35H85.56v-3.18Zm29.34-7.95a32.209,32.209,0,0,0-2.25-5.22l-2.58,1.02a33.47,33.47,0,0,1,2.07,5.37ZM92.34-9.51h7.23v-2.67H92.34Zm7.23-6.75H92.34v2.7h7.23ZM97.08-5.31v3.54H94.86V-5.31Zm2.55-2.73H92.37V2.22h2.49V.96h4.77ZM97.8-21.36a25.214,25.214,0,0,0-1.95-3.96l-2.49.93a30.631,30.631,0,0,1,1.71,3.99h-3.6v2.79h8.67V-20.4H95.52Zm11.76-1.17h-2.55a20.788,20.788,0,0,0-1.32-2.91l-2.73.78a19.855,19.855,0,0,1,.96,2.13h-3.24v2.73h8.88Zm-5.55,18.6V-5.85h2.67v1.92Zm2.67-6.12v1.86h-2.67v-1.86Zm8.94-2.61a31.772,31.772,0,0,1-1.47,4.02c-.18-1.5-.33-3.12-.45-4.89h4.95v-3h-5.16c-.12-2.79-.24-5.76-.24-8.82H110.1c.06,3.12.15,6.09.3,8.82h-2.31c.27-.84.57-1.86.87-2.88l-2.7-.39a29.663,29.663,0,0,1-.63,3.27h-1.05a21.893,21.893,0,0,0-.75-3.24l-2.4.42c.21.87.45,1.92.57,2.82h-1.77v3h10.35a76.208,76.208,0,0,0,1.14,9.09,22.031,22.031,0,0,1-2.13,2.49v-10.5h-8.43V.6h2.85V-1.56h2.67v.72h1.77a15.908,15.908,0,0,1-1.8,1.38,10.384,10.384,0,0,1,2.01,1.95,22.465,22.465,0,0,0,3.93-3.51c.81,2.19,1.83,3.45,3.21,3.45,1.05,0,2.37-1.02,3.12-5.64a9.7,9.7,0,0,1-2.28-1.98c-.12,2.28-.39,3.54-.75,3.57-.36,0-.72-.87-1.05-2.37a28.747,28.747,0,0,0,3.48-7.29Zm33.03,1.35v-3.54H136.08v-3.6h9.72v-3.42h-9.72v-3.57H132.3v10.59H121.47v3.54h10.98V2.58h3.81V-5.91c3.06,1.29,7.2,3.12,9.24,4.23l1.98-3.21c-2.34-1.14-6.99-2.94-9.96-4.08l-1.26,1.89v-4.23Z" transform="translate(450 43)" fill="#fff"/>
    <path id="Path_420" data-name="Path 420" d="M21.792-20.136H19.2v9.5c0,.312-.12.408-.456.408-.336.024-1.488.024-2.568-.024a9.459,9.459,0,0,1,.84,2.256,10.164,10.164,0,0,0,3.672-.384c.864-.384,1.1-.96,1.1-2.184Zm-4.7.984H14.544v7.92h2.544ZM19.512-5.16A26.792,26.792,0,0,1,16.32-3.216,9.552,9.552,0,0,1,14.592-5.16ZM3.216-16.008a9.448,9.448,0,0,0,.624-.96h2.3v.96ZM20.376-5.16H22.8V-7.416H14.016a12.471,12.471,0,0,0-.96-1.968L12.5-9.24a1.844,1.844,0,0,0,.312-1.272v-2.736H8.568v-.84h4.608v-1.92H8.568v-.96h3.96v-1.824H8.568v-1.536H6.144v1.536H4.776c.144-.336.264-.624.384-.96L3.048-20.28a10.181,10.181,0,0,1-1.9,3.432c.408.192,1.032.552,1.512.84H1.176v1.92H6.144v.84H2.136v4.7H4.3V-11.52H6.144v3.528H8.568V-11.52h1.968v1.008c0,.192-.072.264-.264.264s-.744,0-1.3-.024A8.3,8.3,0,0,1,9.648-8.64h.744c.192.384.384.792.552,1.224H1.224V-5.16H8.232A26.294,26.294,0,0,1,.84-3.144,12.285,12.285,0,0,1,2.352-1.08,26.947,26.947,0,0,0,6-1.968V-1.9A2.543,2.543,0,0,1,4.944.264a5.664,5.664,0,0,1,.84,1.752l.024.216C6.288,1.9,7.128,1.68,12.84.384a17.611,17.611,0,0,1,.192-2.136L8.568-.84V-2.976a15.1,15.1,0,0,0,3.456-2.04c1.8,3.7,4.8,5.856,9.648,6.792A11.017,11.017,0,0,1,23.208-.48a16.329,16.329,0,0,1-4.9-1.416A30.6,30.6,0,0,0,21.984-3.96ZM39-15.768h2.9v1.488H39ZM44.616-6.84H41.928V-8.088h2.688ZM41.928-3.432V-4.8h2.688v1.368Zm-5.28,0A13.059,13.059,0,0,0,36.72-4.8h2.64v1.368Zm.1-4.656H39.36V-6.84H36.744ZM48.12-11.64v-2.64H44.64v-1.488h2.928v-2.616H44.64v-1.848H41.9v1.848H39v-1.848H36.264v1.848H32.856v2.616h3.408v1.488H32.136v2.64h2.712a13.663,13.663,0,0,1-3.7,3.264V-14.9a44.075,44.075,0,0,0,1.776-4.656l-2.64-.768a26.892,26.892,0,0,1-4.608,9.24,22.7,22.7,0,0,1,1.392,3.072,19.489,19.489,0,0,0,1.32-1.8V2.04h2.76V-8.16A23.824,23.824,0,0,1,32.64-5.952c.432-.312.888-.648,1.344-1.032v1.3c0,2.016-.144,4.512-1.656,6.312A13.272,13.272,0,0,1,34.68,2.256a8.552,8.552,0,0,0,1.656-3.672H39.36v3h2.568v-3h2.688V-.48c0,.24-.1.312-.336.312-.24.024-.984.024-1.584,0a7.738,7.738,0,0,1,.768,2.16,6.637,6.637,0,0,0,2.9-.384c.72-.384.936-.936.936-2.064v-9.912H37.1a14.547,14.547,0,0,0,.84-1.272ZM57.888.336c4.1,0,6.528-2.472,6.528-5.376,0-2.568-1.416-3.936-3.576-4.824l-2.328-.984c-1.512-.6-2.76-1.056-2.76-2.328,0-1.176.984-1.872,2.544-1.872a5.665,5.665,0,0,1,3.768,1.464l1.8-2.232A7.882,7.882,0,0,0,58.3-18.1c-3.6,0-6.144,2.232-6.144,5.136,0,2.592,1.8,4.032,3.6,4.776l2.376,1.008c1.584.672,2.664,1.08,2.664,2.4,0,1.248-.984,2.04-2.832,2.04A6.987,6.987,0,0,1,53.448-4.7l-2.04,2.448A9.464,9.464,0,0,0,57.888.336Zm17.928,0c4.7,0,7.944-3.528,7.944-9.288S80.52-18.1,75.816-18.1s-7.944,3.36-7.944,9.144C67.872-3.192,71.112.336,75.816.336Zm0-3.072c-2.64,0-4.32-2.424-4.32-6.216,0-3.816,1.68-6.1,4.32-6.1s4.32,2.28,4.32,6.1C80.136-5.16,78.456-2.736,75.816-2.736ZM88.44,0h3.552V-6.312h2.376c3.816,0,6.864-1.824,6.864-5.88,0-4.2-3.024-5.592-6.96-5.592H88.44Zm3.552-9.12v-5.832h2.016c2.448,0,3.744.7,3.744,2.76,0,2.04-1.176,3.072-3.624,3.072Z" transform="translate(620 43)" fill="#fff"/>
  </g>
</svg>
